<?xml version="1.0" encoding="utf-8"?>
<!-- Generator: Adobe Illustrator 23.1.0, SVG Export Plug-In . SVG Version: 6.00 Build 0)  -->
<svg version="1.1" id="Calque_1" xmlns="http://www.w3.org/2000/svg" xmlns:xlink="http://www.w3.org/1999/xlink" x="0px" y="0px"
	 viewBox="0 0 1920 1080" style="enable-background:new 0 0 1920 1080;" xml:space="preserve">
<style type="text/css">
	.st0{fill:#090909;}
</style>
<polygon class="st0" points="373.3,335.9 439.6,341.6 468.3,285.5 402,279.8 "/>
<g>
	<path class="st0" d="M522.7,139.1c0,0.2,0.1,0.4,0.1,0.6l0.1,0.5c0.1,0.3,0.3,0.4,0.5,0.5c0.1,0,0.1,0,0.2,0c0.2,0,0.4-0.1,0.5-0.2
		l0.2-0.3c2-2.3,4.5-3.5,7.6-3.8h0.3c0.3,0,0.5-0.2,0.6-0.5s0-0.6-0.2-0.7l-0.2-0.2c-0.4-0.3-0.8-0.5-1.3-0.7l0,0
		c-0.3-0.1-0.7-0.2-1.1-0.2c-2.1-0.1-4.1,0.6-5.8,2.1C523.1,137.1,522.6,138.1,522.7,139.1z M524.2,138.3c0.2-0.4,0.5-0.7,0.9-1.1
		c1.2-1,2.6-1.6,4-1.7C527.3,136,525.7,136.9,524.2,138.3z"/>
	<path class="st0" d="M527.5,144.3l-0.1-0.3c-0.3-0.9-0.4-1.3-0.1-1.9l0.2-0.4l2,4.9l-0.5-0.3C528.9,146.2,527.9,145.5,527.5,144.3z
		"/>
	<path class="st0" d="M530.6,140.6l0.2-0.2l1.9,4.6l-0.4-0.2C531.1,144.2,530,141.3,530.6,140.6z"/>
	<polygon class="st0" points="513.6,167.2 504.2,185.6 496.8,185 506.3,166.5 	"/>
	<path class="st0" d="M472.3,172.8c1.8-0.8,4-1.1,6.8-1.1l9.2,0.1c1.1,0,2-0.1,2.5-0.3c0.6-0.2,1.1-0.6,1.4-1.1
		c0.3-0.6,0.1-1.1-0.5-1.5c-0.6-0.3-1.7-0.6-3.5-0.7c-1.7-0.1-3-0.1-4.1,0.2l0,0c-1,0.3-1.9,0.8-2.5,1.5l-8.6-0.7
		c0.8-1.4,2-2.6,3.5-3.3c1.6-0.8,3.4-1.3,5.6-1.5s4.8-0.2,7.8,0.1s5.5,0.7,7.3,1.2s3,1.3,3.6,2.3c0.6,0.9,0.5,2.2-0.3,3.7
		c-0.9,1.8-2.2,3-3.9,3.7c-1.7,0.7-4,1.1-6.8,1h-8.9c-1,0-1.8,0.1-2.5,0.3s-1.2,0.7-1.5,1.2c-0.4,0.7-0.2,1.3,0.6,1.7
		c0.7,0.4,1.9,0.6,3.8,0.8c1.8,0.2,3.3,0.1,4.5-0.2c1.1-0.3,2.1-0.9,2.8-1.9l8.7,0.7c-1,1.6-2.2,2.9-3.7,3.7
		c-1.6,0.9-3.5,1.4-5.7,1.6c-2.2,0.2-5,0.2-8.3-0.1c-3.4-0.3-6.1-0.7-8-1.3c-1.9-0.5-3.1-1.3-3.7-2.3s-0.4-2.4,0.4-4
		C469.3,174.8,470.6,173.5,472.3,172.8z"/>
	<path class="st0" d="M441.6,170.1c1.8-0.8,4-1.1,6.8-1.1l9.2,0.1c1.1,0,2-0.1,2.5-0.3c0.6-0.2,1.1-0.6,1.4-1.1
		c0.3-0.6,0.1-1.1-0.5-1.5c-0.6-0.3-1.7-0.6-3.5-0.7c-1.7-0.1-3-0.1-4.1,0.2s-1.9,0.8-2.5,1.5l-8.6-0.7c0.9-1.4,2-2.6,3.5-3.3
		c1.6-0.8,3.4-1.3,5.6-1.5s4.8-0.2,7.8,0.1s5.5,0.7,7.3,1.2s3,1.3,3.6,2.3c0.6,0.9,0.5,2.2-0.3,3.7c-0.9,1.8-2.2,3-3.9,3.7
		c-1.8,0.7-4,1.1-6.8,1h-8.9c-1,0-1.8,0.1-2.5,0.3s-1.2,0.7-1.5,1.2c-0.4,0.7-0.2,1.3,0.6,1.7c0.7,0.4,1.9,0.6,3.8,0.8
		c1.8,0.2,3.3,0.1,4.5-0.2c1.1-0.3,2.1-0.9,2.8-1.9l8.7,0.7c-1,1.6-2.2,2.9-3.7,3.7c-1.6,0.9-3.5,1.4-5.7,1.6
		c-2.2,0.2-5,0.2-8.3-0.1c-3.4-0.3-6.1-0.7-8-1.3c-1.9-0.5-3.1-1.3-3.7-2.3s-0.4-2.4,0.4-4C438.6,172.2,439.9,170.9,441.6,170.1z"/>
	<path class="st0" d="M531.8,227c-1.3,0.9-2.9,1.6-4.6,1.9c-1.8,0.3-3.9,0.4-6.3,0.2c-2.4-0.2-4.3-0.5-5.7-1.1
		c-1.4-0.5-2.2-1.3-2.6-2.4c-0.3-1.1-0.1-2.5,0.8-4.2l4-8.2l5.7,0.4l-4,8.1c-0.6,1.2-0.5,2,0.1,2.6s1.8,0.9,3.4,1
		c1.6,0.1,3,0,4.1-0.5c1.2-0.5,2.1-1.3,2.6-2.4l4-8.1l5.7,0.4l-4,8.2C534.3,224.7,533.2,226.1,531.8,227z"/>
	<path class="st0" d="M507.3,227.6l7.1-14.6l-14.7-1c-2.4-0.2-4.4,0.1-5.9,0.8c-1.4,0.7-2.6,2-3.4,3.7s-0.9,3-0.3,3.9
		c0.7,0.9,2.2,1.4,4.7,1.6l8.9,0.6l-2.3,4.6L507.3,227.6z M507.1,216l-1.7,3.6l-7.1-0.5c-1.9-0.1-1.9-1.1-1.5-1.9
		c0.3-0.6,0.7-1.1,1.3-1.3c0.5-0.3,1.2-0.4,1.9-0.3L507.1,216z"/>
</g>
<path class="st0" d="M428.4,241.7c5.4,9.4,13.4,17.1,23.8,22.7c5.7,3.1,11.9,5.5,18.6,7.3c0.9,2.5,2,5,3.3,7.3
	c4.2,7.2,10.3,13.1,18.3,17.5c3,1.7,6.3,3.1,9.8,4.3c0.8,3.1,2,6.1,3.6,8.9c3.3,5.8,8.2,10.5,14.6,14c6.5,3.6,14.3,5.7,23.1,6.3
	c1.7,0.1,3.5,0.2,5.2,0.2c16.4,0,34.2-5.2,50-14.7c16-9.5,28.5-22.5,35.4-36.5c3.6-7.4,5.5-14.6,5.6-21.6c0.1-6.4-1.3-12.3-4.2-17.6
	c4.3-9,6.5-17.8,6.6-26.4c0.1-7.4-1.4-14.3-4.4-20.6c0.3-0.5,0.5-1,0.8-1.5c11.6-23.8,12.1-47,1.5-65.5
	c-5.4-9.4-13.4-17.1-23.8-22.7c-10.7-5.9-23.4-9.4-37.8-10.4c-57.4-4-124,33.5-148.5,83.5C418.3,199.9,417.8,223.2,428.4,241.7z
	 M633.8,236.9c-3.3-4.9-7.8-9-13.4-12.1c-1.4-0.8-2.8-1.4-4.3-2.1c7.9-8.3,14.6-17.3,19.8-26.7c2.3,5.4,3.4,11.3,3.3,17.6
	C639.2,221.2,637.3,229,633.8,236.9z M505.2,301.7c5,1.4,10.4,2.4,16.2,2.8c2.1,0.2,4.4,0.2,6.6,0.2c20.6,0,42.9-6.5,62.8-18.4
	c19.2-11.4,34.4-26.8,43.3-43.6c2.1,4.5,3.1,9.6,3.1,14.9c-0.1,6.7-1.9,13.6-5.3,20.6c-6.6,13.5-18.8,26.1-34.2,35.3
	c-15.4,9.2-32.6,14.2-48.5,14.2c-1.7,0-3.4-0.1-5-0.2c-8.4-0.6-15.9-2.6-22.1-6.1c-6-3.3-10.6-7.7-13.8-13.2
	C506.9,306.2,505.9,304,505.2,301.7z M503.7,290.9c0.1-5.2,1.2-10.6,3.3-16.1c38.9-2.5,79.6-22,107.2-50.1c1.6,0.7,3.2,1.4,4.7,2.2
	c5.9,3.2,10.5,7.6,13.6,12.9c-8.3,17-23.6,32.7-43.1,44.3C570,295.7,548.3,302,528.3,302c-2.1,0-4.3-0.1-6.3-0.2
	c-6.3-0.4-12.2-1.5-17.6-3.3C503.9,296.1,503.7,293.5,503.7,290.9z M573,232.2l5-10.3c4.6-0.8,9.2-1.2,13.7-1.2c1.7,0,3.4,0.1,5,0.2
	c5.3,0.4,10.2,1.3,14.6,2.8c-26.7,26.8-65.8,45.5-103.2,48.2c0.2-0.6,0.5-1.1,0.8-1.7c6.6-13.5,18.8-26.1,34.2-35.3
	c7.3-4.4,15.1-7.8,22.9-10.2l-3.3,6.8L573,232.2z M569.4,218.1l-13-0.9c-1.2-0.1-2-0.4-2.3-0.8c-0.4-0.5-0.3-1.2,0.1-2.1
	c0.4-0.9,1.1-1.6,1.9-2c0.8-0.4,1.8-0.5,3-0.5l13,0.9L569.4,218.1z M474.3,272.5c5,1.1,10.2,1.8,15.7,2.2c2.8,0.2,5.7,0.3,8.5,0.3
	c1.9,0,3.9,0,5.8-0.1c-2.1,5.5-3.1,10.9-3.2,16.2c0,2.2,0.1,4.4,0.4,6.5c-2.6-1-5.1-2.1-7.4-3.4c-7.6-4.2-13.4-9.8-17.4-16.6
	C475.8,275.9,475,274.3,474.3,272.5z M471.2,255.5c0.1-8.4,2.4-17.2,6.7-26c2.4-4.9,5.4-9.8,8.9-14.4l2.5,0.2l1.9-3.8l-1.4-0.1
	c8-9.6,18.1-18.3,29.8-25.5c3.6,4.5,9.6,7.6,17.5,8.3c2.2,0.2,3.3,0.2,5.3,0.1l9.9-19.2c-0.5,0-0.9,0-1.4,0
	c-1.9-0.2-3.5-0.8-4.6-1.7c12-4.1,24.2-6.2,35.8-6.2c2.1,0,4.3,0.1,6.3,0.2c10.6,0.7,20,3.3,27.9,7.6c7.6,4.2,13.4,9.8,17.4,16.6
	c0.2,0.4,0.5,0.8,0.7,1.2c-5.3,10.3-12.5,20-21.1,28.9c-4.9-1.7-10.2-2.8-16-3.2c-5.9-0.4-12-0.1-18,0.8l6-12.4l-26.3-1.8
	c-4.2-0.3-7.5,0.2-10,1.4c-2.4,1.2-4.4,3.3-5.8,6.1c-1,2.1-1.3,3.8-0.8,5s1.7,2,3.5,2.5l0.2,0.1l-0.3,0.6l-11.4,8.7l10.9,0.8l9-7.3
	l0.1-0.1l8.1,0.5c-24,8.2-45.9,25.3-56,46c-0.4,0.9-0.8,1.7-1.2,2.5c-5,0.2-9.9,0.2-14.7-0.1c-6.2-0.4-12.1-1.4-17.7-2.7
	C471.8,264.9,471.1,260.3,471.2,255.5z M539.2,142c0.2,0.1,0.3,0.2,0.5,0.2c0.2,0.1,0.4,0.1,0.6,0.1h0.3c0.4,0,0.8,0.1,1.2,0.1
	c-0.8,0.4-1.5,0.7-2.3,1.1c-0.1-0.2-0.1-0.4-0.2-0.6C539.2,142.6,539.2,142.3,539.2,142z M528,151.5c-1.8-3.6-2.2-8.3-2.2-9.6
	l0.1-0.1c0.2-0.2,0.4-0.4,0.6-0.6c1.5-1.5,3.3-2.4,5.6-2.8c1.2-0.2,2.5-0.1,3.8,0.2l0.7,0.2c0.8,0.2,1.9,0.5,2.9,0.7
	c1.3,0.3,2.7,0,3.8-0.9c0.3-0.2,0.6-0.4,0.9-0.7c0.1-0.1,0.3-0.1,0.5-0.1h0.1c0.3,0.1,0.3,0.2,0.3,0.2c0.1,0.2,0.2,0.9-0.9,2
	c-0.5,0.5-1.2,0.8-1.9,0.8c-0.5,0-1.1,0-1.6-0.1h-0.3c-0.1,0-0.3,0-0.3-0.1l0,0c-0.2,0-0.4-0.2-0.6-0.3c-0.5-0.3-0.8-0.4-1.2-0.2
	c-0.2,0.1-0.3,0.3-0.4,0.5c-0.2,0.8-0.2,1.7,0.1,2.6c0.1,0.3,0.2,0.5,0.3,0.8c0.5,1.5,1.1,2.9,1.6,4.2c0.3,0.7,0.6,1.4,0.9,2.1
	c0.3,0.8,0.7,1.7,1,2.6c0.1,0.3,0.2,0.6,0.1,0.8c0,0.2-0.1,0.2-0.1,0.2c-0.1,0-0.3,0.1-0.7,0c-0.2,0-0.4-0.1-0.6-0.1
	c-1-0.3-1.7-0.8-2.3-1.6c-0.6-0.9-1.3-1.9-1.9-2.8l-0.3-0.5c-0.4-0.6-0.8-1.2-1.2-1.8c-0.2-0.2-0.4-0.4-0.6-0.6c0,0,0,0-0.1-0.1
	l-0.1-0.1l-0.1-0.1c-0.1-0.1-0.3-0.2-0.5-0.2c-0.1,0-0.2,0-0.3,0.1l-0.4,0.2c-0.3,0.2-0.5,0.6-0.3,0.9l0.1,0.3l0,0
	c0.1,0.2,0.2,0.4,0.3,0.5l0.6,1.2c0.2,0.4,0.5,0.9,0.7,1.3l0.1,0.1c0,0.1,0.1,0.2,0.2,0.2c0.6,0.7,2.5,3.1,2.8,3.8
	c0.2,0.6,0.2,0.7-0.3,1c0,0-0.2,0.1-0.9-0.1c-0.3-0.1-0.7-0.2-1.1-0.4c-0.8-0.3-1.1-0.9-1.5-1.5l-0.1-0.2c-0.1-0.1-0.2-0.3-0.4-0.6
	l-0.3-0.5c-0.6-0.9-1.4-2.2-1.6-2.7c0-0.1-0.1-0.1-0.1-0.1c-0.1-0.2-0.2-0.3-0.3-0.4c-0.1-0.1-0.1-0.1-0.2-0.2l-0.1-0.1l-0.1-0.1
	c-0.2-0.2-0.5-0.3-0.8-0.2h-0.1c-0.4,0.2-0.6,0.5-0.5,0.9v0.1c0,0,0,0,0,0.1s0.1,0.2,0.2,0.4c0,0,0,0.1,0.1,0.1
	c0.1,0.3,0.3,0.6,0.6,1.2c0.2,0.4,0.7,1.3,1.4,2.3c0.2,0.4,0.4,0.7,0.5,0.8c0,0.1,0,0.1,0,0.2c-0.1,0-0.3,0-0.4,0
	c-0.1,0-0.1-0.1-0.2-0.1c-0.4-0.3-0.7-0.6-1-1l-0.2-0.2C529.1,153.3,528.5,152.4,528,151.5z M432.8,176.9
	c23.8-48.8,88.8-85.3,144.8-81.4c13.9,1,26.2,4.4,36.6,10c10,5.5,17.7,12.8,22.9,21.9c10.1,17.5,9.7,39.6-1.1,62.2
	c-4.2-7-10.2-12.7-18-16.9c-8.2-4.5-18-7.2-29-8c-2.1-0.2-4.4-0.2-6.6-0.2c-12.3,0-25.2,2.3-37.8,6.7c-0.7-1.7-0.6-3.7,0.5-5.8
	c2.5-4.8,9.1-8.4,14.7-7.9c0.5,0,1,0.1,1.4,0.2l9.9-19.2c-1.6-0.4-3-0.6-5-0.7c-6.7-0.6-13.9,0.6-20.7,3.2c0.9-1,1.3-2,1-3
	c-0.1-0.4-0.4-1-1.2-1.2c-0.1,0-0.2,0-0.3-0.1c-0.5-0.1-1.1,0-1.5,0.3s-0.8,0.5-1.1,0.7c-0.8,0.6-1.7,0.8-2.6,0.6
	c-1-0.2-2-0.5-2.9-0.7l-0.7-0.2c-1.5-0.4-2.9-0.5-4.4-0.3c-2.6,0.4-4.7,1.5-6.4,3.2c-0.2,0.2-0.4,0.4-0.6,0.6l-0.3,0.3
	c-0.1,0.1-0.2,0.4-0.2,0.6c0,0.8,0.2,6.6,2.6,10.8c-3.3,3.2-6.1,6.8-8.1,10.6c-4,7.8-4,15.1-0.7,20.7c-12.5,7.7-23.3,17-31.6,27.3
	l-17.1-1.2l-1.9,3.8l7.8,0.5l-5.3,10.8l5.7,0.4l5.3-10.8l2.5,0.2c-3.3,4.5-6.1,9.1-8.5,13.9c-4.5,9.2-6.8,18.3-7,27.1
	c-0.1,4.4,0.4,8.5,1.5,12.5c-5.6-1.6-10.8-3.8-15.6-6.4c-10-5.5-17.6-12.8-22.9-21.8C421.1,222.3,421.6,199.8,432.8,176.9z"/>
<polygon class="st0" points="634.4,335.9 700.7,341.6 729.4,285.5 663.1,279.8 "/>
<g>
	<path class="st0" d="M783.8,139.1c0,0.2,0.1,0.4,0.1,0.6l0.1,0.5c0.1,0.3,0.3,0.4,0.5,0.5c0.1,0,0.1,0,0.2,0c0.2,0,0.4-0.1,0.5-0.2
		l0.2-0.3c2-2.3,4.5-3.5,7.6-3.8h0.3c0.3,0,0.5-0.2,0.6-0.5s0-0.6-0.2-0.7l-0.2-0.2c-0.4-0.3-0.8-0.5-1.3-0.7l0,0
		c-0.3-0.1-0.7-0.2-1.1-0.2c-2.1-0.1-4.1,0.6-5.8,2.1C784.3,137.1,783.7,138.1,783.8,139.1z M785.4,138.3c0.2-0.4,0.5-0.7,0.9-1.1
		c1.2-1,2.6-1.6,4-1.7C788.4,136,786.8,136.9,785.4,138.3z"/>
	<path class="st0" d="M788.7,144.3l-0.1-0.3c-0.3-0.9-0.4-1.3-0.1-1.9l0.2-0.4l2,4.9l-0.5-0.3C790.1,146.2,789,145.5,788.7,144.3z"
		/>
	<path class="st0" d="M791.7,140.6l0.2-0.2l1.9,4.6l-0.4-0.2C792.3,144.2,791.1,141.3,791.7,140.6z"/>
	<polygon class="st0" points="774.8,167.2 765.3,185.6 757.9,185 767.4,166.5 	"/>
	<path class="st0" d="M733.4,172.8c1.8-0.8,4-1.1,6.8-1.1l9.2,0.1c1.1,0,2-0.1,2.5-0.3c0.6-0.2,1.1-0.6,1.4-1.1
		c0.3-0.6,0.1-1.1-0.5-1.5c-0.6-0.3-1.7-0.6-3.5-0.7c-1.7-0.1-3-0.1-4.1,0.2l0,0c-1,0.3-1.9,0.8-2.5,1.5l-8.6-0.7
		c0.8-1.4,2-2.6,3.5-3.3c1.6-0.8,3.4-1.3,5.6-1.5c2.2-0.2,4.8-0.2,7.8,0.1s5.5,0.7,7.3,1.2s3,1.3,3.6,2.3c0.6,0.9,0.5,2.2-0.3,3.7
		c-0.9,1.8-2.2,3-3.9,3.7s-4,1.1-6.8,1H742c-1,0-1.8,0.1-2.5,0.3s-1.2,0.7-1.5,1.2c-0.4,0.7-0.2,1.3,0.6,1.7
		c0.7,0.4,1.9,0.6,3.8,0.8c1.8,0.2,3.3,0.1,4.5-0.2c1.1-0.3,2.1-0.9,2.8-1.9l8.7,0.7c-1,1.6-2.2,2.9-3.7,3.7
		c-1.6,0.9-3.5,1.4-5.7,1.6c-2.2,0.2-5,0.2-8.3-0.1c-3.4-0.3-6.1-0.7-8-1.3c-1.9-0.5-3.1-1.3-3.7-2.3c-0.6-1-0.4-2.4,0.4-4
		C730.4,174.8,731.7,173.5,733.4,172.8z"/>
	<path class="st0" d="M702.7,170.1c1.8-0.8,4-1.1,6.8-1.1l9.2,0.1c1.1,0,2-0.1,2.5-0.3c0.6-0.2,1.1-0.6,1.4-1.1
		c0.3-0.6,0.1-1.1-0.5-1.5c-0.6-0.3-1.7-0.6-3.5-0.7c-1.7-0.1-3-0.1-4.1,0.2s-1.9,0.8-2.5,1.5l-8.6-0.7c0.9-1.4,2-2.6,3.5-3.3
		c1.6-0.8,3.4-1.3,5.6-1.5c2.2-0.2,4.8-0.2,7.8,0.1s5.5,0.7,7.3,1.2s3,1.3,3.6,2.3c0.6,0.9,0.5,2.2-0.3,3.7c-0.9,1.8-2.2,3-3.9,3.7
		c-1.8,0.7-4,1.1-6.8,1h-8.9c-1,0-1.8,0.1-2.5,0.3s-1.2,0.7-1.5,1.2c-0.4,0.7-0.2,1.3,0.6,1.7c0.7,0.4,1.9,0.6,3.8,0.8
		c1.8,0.2,3.3,0.1,4.5-0.2c1.1-0.3,2.1-0.9,2.8-1.9l8.7,0.7c-1,1.6-2.2,2.9-3.7,3.7c-1.6,0.9-3.5,1.4-5.7,1.6
		c-2.2,0.2-5,0.2-8.3-0.1c-3.4-0.3-6.1-0.7-8-1.3c-1.9-0.5-3.1-1.3-3.7-2.3c-0.6-1-0.4-2.4,0.4-4C699.7,172.2,701,170.9,702.7,170.1
		z"/>
	<path class="st0" d="M792.9,227c-1.3,0.9-2.9,1.6-4.6,1.9c-1.8,0.3-3.9,0.4-6.3,0.2c-2.4-0.2-4.3-0.5-5.7-1.1
		c-1.4-0.5-2.2-1.3-2.6-2.4c-0.3-1.1-0.1-2.5,0.8-4.2l4-8.2l5.7,0.4l-4,8.1c-0.6,1.2-0.5,2,0.1,2.6s1.8,0.9,3.4,1
		c1.6,0.1,3,0,4.1-0.5c1.2-0.5,2.1-1.3,2.6-2.4l4-8.1l5.7,0.4l-4,8.2C795.4,224.7,794.3,226.1,792.9,227z"/>
	<path class="st0" d="M768.4,227.6l7.1-14.6l-14.7-1c-2.4-0.2-4.4,0.1-5.9,0.8c-1.4,0.7-2.6,2-3.4,3.7c-0.8,1.7-0.9,3-0.3,3.9
		c0.7,0.9,2.2,1.4,4.7,1.6l8.9,0.6l-2.3,4.6L768.4,227.6z M768.2,216l-1.7,3.6l-7.1-0.5c-1.9-0.1-1.9-1.1-1.5-1.9
		c0.3-0.6,0.7-1.1,1.3-1.3c0.5-0.3,1.2-0.4,1.9-0.3L768.2,216z"/>
</g>
<path class="st0" d="M689.5,241.7c5.4,9.4,13.4,17.1,23.8,22.7c5.7,3.1,11.9,5.5,18.6,7.3c0.9,2.5,2,5,3.3,7.3
	c4.2,7.2,10.3,13.1,18.3,17.5c3,1.7,6.3,3.1,9.8,4.3c0.8,3.1,2,6.1,3.6,8.9c3.3,5.8,8.2,10.5,14.6,14c6.5,3.6,14.3,5.7,23.1,6.3
	c1.7,0.1,3.5,0.2,5.2,0.2c16.4,0,34.2-5.2,50-14.7c16-9.5,28.5-22.5,35.4-36.5c3.6-7.4,5.5-14.6,5.6-21.6c0.1-6.4-1.3-12.3-4.2-17.6
	c4.3-9,6.5-17.8,6.6-26.4c0.1-7.4-1.4-14.3-4.4-20.6c0.3-0.5,0.5-1,0.8-1.5c11.6-23.8,12.1-47,1.5-65.5
	c-5.4-9.4-13.4-17.1-23.8-22.7c-10.7-5.9-23.4-9.4-37.8-10.4c-57.4-4-124,33.5-148.5,83.5C679.4,199.9,678.9,223.2,689.5,241.7z
	 M895,236.9c-3.3-4.9-7.8-9-13.4-12.1c-1.4-0.8-2.8-1.4-4.3-2.1c7.9-8.3,14.6-17.3,19.8-26.7c2.3,5.4,3.4,11.3,3.3,17.6
	C900.3,221.2,898.5,229,895,236.9z M766.3,301.7c5,1.4,10.4,2.4,16.2,2.8c2.1,0.2,4.4,0.2,6.6,0.2c20.6,0,42.9-6.5,62.8-18.4
	c19.2-11.4,34.4-26.8,43.3-43.6c2.1,4.5,3.1,9.6,3.1,14.9c-0.1,6.7-1.9,13.6-5.3,20.6c-6.6,13.5-18.8,26.1-34.2,35.3
	c-15.4,9.2-32.6,14.2-48.5,14.2c-1.7,0-3.4-0.1-5-0.2c-8.4-0.6-15.9-2.6-22.1-6.1c-6-3.3-10.6-7.7-13.8-13.2
	C768,306.2,767,304,766.3,301.7z M764.8,290.9c0.1-5.2,1.2-10.6,3.3-16.1c38.9-2.5,79.6-22,107.2-50.1c1.6,0.7,3.2,1.4,4.7,2.2
	c5.9,3.2,10.5,7.6,13.6,12.9c-8.3,17-23.6,32.7-43.1,44.3c-19.4,11.6-41.1,17.9-61.1,17.9c-2.1,0-4.3-0.1-6.3-0.2
	c-6.3-0.4-12.2-1.5-17.6-3.3C765,296.1,764.8,293.5,764.8,290.9z M834.1,232.2l5-10.3c4.6-0.8,9.2-1.2,13.7-1.2c1.7,0,3.4,0.1,5,0.2
	c5.3,0.4,10.2,1.3,14.6,2.8c-26.7,26.8-65.8,45.5-103.2,48.2c0.2-0.6,0.5-1.1,0.8-1.7c6.6-13.5,18.8-26.1,34.2-35.3
	c7.3-4.4,15.1-7.8,22.9-10.2l-3.3,6.8L834.1,232.2z M830.5,218.1l-13-0.9c-1.2-0.1-2-0.4-2.3-0.8c-0.4-0.5-0.3-1.2,0.1-2.1
	c0.4-0.9,1.1-1.6,1.9-2c0.8-0.4,1.8-0.5,3-0.5l13,0.9L830.5,218.1z M735.4,272.5c5,1.1,10.2,1.8,15.7,2.2c2.8,0.2,5.7,0.3,8.5,0.3
	c1.9,0,3.9,0,5.8-0.1c-2.1,5.5-3.1,10.9-3.2,16.2c0,2.2,0.1,4.4,0.4,6.5c-2.6-1-5.1-2.1-7.4-3.4c-7.6-4.2-13.4-9.8-17.4-16.6
	C736.9,275.9,736.1,274.3,735.4,272.5z M732.3,255.5c0.1-8.4,2.4-17.2,6.7-26c2.4-4.9,5.4-9.8,8.9-14.4l2.5,0.2l1.9-3.8l-1.4-0.1
	c8-9.6,18.1-18.3,29.8-25.5c3.6,4.5,9.6,7.6,17.5,8.3c2.2,0.2,3.3,0.2,5.3,0.1l9.9-19.2c-0.5,0-0.9,0-1.4,0
	c-1.9-0.2-3.5-0.8-4.6-1.7c12-4.1,24.2-6.2,35.8-6.2c2.1,0,4.3,0.1,6.3,0.2c10.6,0.7,20,3.3,27.9,7.6c7.6,4.2,13.4,9.8,17.4,16.6
	c0.2,0.4,0.5,0.8,0.7,1.2c-5.3,10.3-12.5,20-21.1,28.9c-4.9-1.7-10.2-2.8-16-3.2c-5.9-0.4-12-0.1-18,0.8l6-12.4l-26.3-1.8
	c-4.2-0.3-7.5,0.2-10,1.4c-2.4,1.2-4.4,3.3-5.8,6.1c-1,2.1-1.3,3.8-0.8,5s1.7,2,3.5,2.5l0.2,0.1l-0.3,0.6l-11.4,8.7l10.9,0.8l9-7.3
	l0.1-0.1l8.1,0.5c-24,8.2-45.9,25.3-56,46c-0.4,0.9-0.8,1.7-1.2,2.5c-5,0.2-9.9,0.2-14.7-0.1c-6.2-0.4-12.1-1.4-17.7-2.7
	C732.9,264.9,732.2,260.3,732.3,255.5z M800.3,142c0.2,0.1,0.3,0.2,0.5,0.2c0.2,0.1,0.4,0.1,0.6,0.1h0.3c0.4,0,0.8,0.1,1.2,0.1
	c-0.8,0.4-1.5,0.7-2.3,1.1c-0.1-0.2-0.1-0.4-0.2-0.6C800.4,142.6,800.3,142.3,800.3,142z M789.1,151.5c-1.8-3.6-2.2-8.3-2.2-9.6
	l0.1-0.1c0.2-0.2,0.4-0.4,0.6-0.6c1.5-1.5,3.3-2.4,5.6-2.8c1.2-0.2,2.5-0.1,3.8,0.2l0.7,0.2c0.8,0.2,1.9,0.5,2.9,0.7
	c1.3,0.3,2.7,0,3.8-0.9c0.3-0.2,0.6-0.4,0.9-0.7c0.1-0.1,0.3-0.1,0.5-0.1h0.1c0.3,0.1,0.3,0.2,0.3,0.2c0.1,0.2,0.2,0.9-0.9,2
	c-0.5,0.5-1.2,0.8-1.9,0.8c-0.5,0-1.1,0-1.6-0.1h-0.3c-0.1,0-0.3,0-0.3-0.1l0,0c-0.2,0-0.4-0.2-0.6-0.3c-0.5-0.3-0.8-0.4-1.2-0.2
	c-0.2,0.1-0.3,0.3-0.4,0.5c-0.2,0.8-0.2,1.7,0.1,2.6c0.1,0.3,0.2,0.5,0.3,0.8c0.5,1.5,1.1,2.9,1.6,4.2c0.3,0.7,0.6,1.4,0.9,2.1
	c0.3,0.8,0.7,1.7,1,2.6c0.1,0.3,0.2,0.6,0.1,0.8c0,0.2-0.1,0.2-0.1,0.2c-0.1,0-0.3,0.1-0.7,0c-0.2,0-0.4-0.1-0.6-0.1
	c-1-0.3-1.7-0.8-2.3-1.6c-0.6-0.9-1.3-1.9-1.9-2.8l-0.3-0.5c-0.4-0.6-0.8-1.2-1.2-1.8c-0.2-0.2-0.4-0.4-0.6-0.6c0,0,0,0-0.1-0.1
	l-0.1-0.1l-0.1-0.1c-0.1-0.1-0.3-0.2-0.5-0.2c-0.1,0-0.2,0-0.3,0.1l-0.4,0.2c-0.3,0.2-0.5,0.6-0.3,0.9l0.1,0.3l0,0
	c0.1,0.2,0.2,0.4,0.3,0.5l0.6,1.2c0.2,0.4,0.5,0.9,0.7,1.3l0.1,0.1c0,0.1,0.1,0.2,0.2,0.2c0.6,0.7,2.5,3.1,2.8,3.8
	c0.2,0.6,0.2,0.7-0.3,1c0,0-0.2,0.1-0.9-0.1c-0.3-0.1-0.7-0.2-1.1-0.4c-0.8-0.3-1.1-0.9-1.5-1.5l-0.1-0.2c-0.1-0.1-0.2-0.3-0.4-0.6
	l-0.3-0.5c-0.6-0.9-1.4-2.2-1.6-2.7c0-0.1-0.1-0.1-0.1-0.1c-0.1-0.2-0.2-0.3-0.3-0.4c-0.1-0.1-0.1-0.1-0.2-0.2l-0.1-0.1l-0.1-0.1
	c-0.2-0.2-0.5-0.3-0.8-0.2h-0.1c-0.4,0.2-0.6,0.5-0.5,0.9v0.1c0,0,0,0,0,0.1s0.1,0.2,0.2,0.4c0,0,0,0.1,0.1,0.1
	c0.1,0.3,0.3,0.6,0.6,1.2c0.2,0.4,0.7,1.3,1.4,2.3c0.2,0.4,0.4,0.7,0.5,0.8c0,0.1,0,0.1,0,0.2c-0.1,0-0.3,0-0.4,0
	c-0.1,0-0.1-0.1-0.2-0.1c-0.4-0.3-0.7-0.6-1-1l-0.2-0.2C790.2,153.3,789.6,152.4,789.1,151.5z M693.9,176.9
	c23.8-48.8,88.8-85.3,144.8-81.4c13.9,1,26.2,4.4,36.6,10c10,5.5,17.7,12.8,22.9,21.9c10.1,17.5,9.7,39.6-1.1,62.2
	c-4.2-7-10.2-12.7-18-16.9c-8.2-4.5-18-7.2-29-8c-2.1-0.2-4.4-0.2-6.6-0.2c-12.3,0-25.2,2.3-37.8,6.7c-0.7-1.7-0.6-3.7,0.5-5.8
	c2.5-4.8,9.1-8.4,14.7-7.9c0.5,0,1,0.1,1.4,0.2l9.9-19.2c-1.6-0.4-3-0.6-5-0.7c-6.7-0.6-13.9,0.6-20.7,3.2c0.9-1,1.3-2,1-3
	c-0.1-0.4-0.4-1-1.2-1.2c-0.1,0-0.2,0-0.3-0.1c-0.5-0.1-1.1,0-1.5,0.3s-0.8,0.5-1.1,0.7c-0.8,0.6-1.7,0.8-2.6,0.6
	c-1-0.2-2-0.5-2.9-0.7l-0.7-0.2c-1.5-0.4-2.9-0.5-4.4-0.3c-2.6,0.4-4.7,1.5-6.4,3.2c-0.2,0.2-0.4,0.4-0.6,0.6l-0.3,0.3
	c-0.1,0.1-0.2,0.4-0.2,0.6c0,0.8,0.2,6.6,2.6,10.8c-3.3,3.2-6.1,6.8-8.1,10.6c-4,7.8-4,15.1-0.7,20.7c-12.5,7.7-23.3,17-31.6,27.3
	l-17.1-1.2l-1.9,3.8l7.8,0.5l-5.3,10.8l5.7,0.4l5.3-10.8l2.5,0.2c-3.3,4.5-6.1,9.1-8.5,13.9c-4.5,9.2-6.8,18.3-7,27.1
	c-0.1,4.4,0.4,8.5,1.5,12.5c-5.6-1.6-10.8-3.8-15.6-6.4c-10-5.5-17.6-12.8-22.9-21.8C682.2,222.3,682.7,199.8,693.9,176.9z"/>
<polygon class="st0" points="895.5,335.3 968.7,341.6 1000.3,279.7 927.2,273.4 "/>
<g>
	<path class="st0" d="M1060.4,118.1c0,0.2,0.1,0.4,0.1,0.7l0.1,0.6c0.1,0.3,0.3,0.4,0.6,0.6c0.1,0,0.1,0,0.2,0
		c0.2,0,0.4-0.1,0.6-0.2l0.2-0.3c2.2-2.5,5-3.9,8.4-4.2h0.3c0.3,0,0.6-0.2,0.7-0.6s0-0.7-0.2-0.8l-0.2-0.2c-0.4-0.3-0.9-0.6-1.4-0.8
		l0,0c-0.3-0.1-0.8-0.2-1.2-0.2c-2.3-0.1-4.5,0.7-6.4,2.3C1060.9,115.9,1060.4,117,1060.4,118.1z M1062.1,117.2
		c0.2-0.4,0.6-0.8,1-1.2c1.3-1.1,2.9-1.8,4.4-1.9C1065.6,115,1063.8,116,1062.1,117.2z"/>
	<path class="st0" d="M1065.8,123.9l-0.1-0.3c-0.3-1-0.4-1.4-0.1-2.1l0.2-0.4l2.2,5.4l-0.6-0.3
		C1067.3,126,1066.1,125.2,1065.8,123.9z"/>
	<path class="st0" d="M1069.1,118.9l0.3-0.3l2.5,6l-0.5-0.3C1069.9,123.6,1068.3,119.8,1069.1,118.9z"/>
	<polygon class="st0" points="1050.4,149.1 1040,169.4 1031.8,168.8 1042.3,148.4 	"/>
	<path class="st0" d="M1004.9,155.3c2-0.9,4.4-1.2,7.5-1.2l10.2,0.1c1.2,0,2.2-0.1,2.8-0.3c0.7-0.2,1.2-0.7,1.5-1.2
		c0.3-0.7,0.1-1.2-0.6-1.7c-0.7-0.3-1.9-0.7-3.9-0.8c-1.9-0.1-3.3-0.1-4.5,0.2l0,0c-1.1,0.3-2.1,0.9-2.8,1.7l-9.5-0.8
		c0.9-1.5,2.2-2.9,3.9-3.6c1.8-0.9,3.8-1.4,6.2-1.7s5.3-0.2,8.6,0.1c3.3,0.3,6.1,0.8,8.1,1.3c2,0.6,3.3,1.4,4,2.5
		c0.7,1,0.6,2.4-0.3,4.1c-1,2-2.4,3.3-4.3,4.1s-4.4,1.2-7.5,1.1h-9.8c-1.1,0-2,0.1-2.8,0.3s-1.3,0.8-1.7,1.3
		c-0.4,0.8-0.2,1.4,0.7,1.9c0.8,0.4,2.1,0.7,4.2,0.9c2,0.2,3.6,0.1,5-0.2c1.2-0.3,2.3-1,3.1-2.1l9.6,0.8c-1.1,1.8-2.4,3.2-4.1,4.1
		c-1.8,1-3.9,1.5-6.3,1.8c-2.4,0.2-5.5,0.2-9.2-0.1c-3.8-0.3-6.7-0.8-8.8-1.4c-2.1-0.6-3.4-1.4-4.1-2.5s-0.4-2.6,0.4-4.4
		C1001.4,157.5,1002.9,156.1,1004.9,155.3z"/>
	<path class="st0" d="M971,152.3c2-0.9,4.4-1.2,7.5-1.2l10.2,0.1c1.2,0,2.2-0.1,2.8-0.3c0.7-0.2,1.2-0.7,1.5-1.2
		c0.3-0.7,0.1-1.2-0.6-1.7c-0.7-0.3-1.9-0.7-3.9-0.8c-1.9-0.1-3.3-0.1-4.5,0.2s-2.1,0.9-2.8,1.7l-9.5-0.8c1-1.5,2.2-2.9,3.9-3.6
		c1.8-0.9,3.8-1.4,6.2-1.7s5.3-0.2,8.6,0.1c3.3,0.3,6.1,0.8,8.1,1.3c2,0.6,3.3,1.4,4,2.5c0.7,1,0.6,2.4-0.3,4.1
		c-1,2-2.4,3.3-4.3,4.1c-2,0.8-4.4,1.2-7.5,1.1h-9.8c-1.1,0-2,0.1-2.8,0.3s-1.3,0.8-1.7,1.3c-0.4,0.8-0.2,1.4,0.7,1.9
		c0.8,0.4,2.1,0.7,4.2,0.9c2,0.2,3.6,0.1,5-0.2c1.2-0.3,2.3-1,3.1-2.1l9.6,0.8c-1.1,1.8-2.4,3.2-4.1,4.1c-1.8,1-3.9,1.5-6.3,1.8
		c-2.4,0.2-5.5,0.2-9.2-0.1c-3.8-0.3-6.7-0.8-8.8-1.4c-2.1-0.6-3.4-1.4-4.1-2.5s-0.4-2.6,0.4-4.4C967.6,154.6,969,153.2,971,152.3z"
		/>
	<path class="st0" d="M1070.5,215.1c-1.4,1-3.2,1.8-5.1,2.1c-2,0.3-4.3,0.4-7,0.2s-4.7-0.6-6.3-1.2c-1.5-0.6-2.4-1.4-2.9-2.6
		c-0.3-1.2-0.1-2.8,0.9-4.6l4.4-9l6.3,0.4l-4.4,8.9c-0.7,1.3-0.6,2.2,0.1,2.9c0.7,0.7,2,1,3.8,1.1s3.3,0,4.5-0.6
		c1.3-0.6,2.3-1.4,2.9-2.6l4.4-8.9l6.3,0.4l-4.4,9C1073.2,212.6,1072,214.1,1070.5,215.1z"/>
	<path class="st0" d="M1043.5,215.8l7.8-16.1l-16.2-1.1c-2.6-0.2-4.9,0.1-6.5,0.9c-1.5,0.8-2.9,2.2-3.8,4.1s-1,3.3-0.3,4.3
		c0.8,1,2.4,1.5,5.2,1.8l9.8,0.7l-2.5,5.1L1043.5,215.8z M1043.3,203l-1.9,4l-7.8-0.6c-2.1-0.1-2.1-1.2-1.7-2.1
		c0.3-0.7,0.8-1.2,1.4-1.4c0.6-0.3,1.3-0.4,2.1-0.3L1043.3,203z"/>
</g>
<path class="st0" d="M956.4,231.3c6,10.4,14.8,18.9,26.3,25.1c6.3,3.4,13.1,6.1,20.5,8.1c1,2.8,2.2,5.5,3.6,8.1
	c4.6,7.9,11.4,14.5,20.2,19.3c3.3,1.9,7,3.4,10.8,4.7c0.9,3.4,2.2,6.7,4,9.8c3.6,6.4,9,11.6,16.1,15.5c7.2,4,15.8,6.3,25.5,7
	c1.9,0.1,3.9,0.2,5.7,0.2c18.1,0,37.7-5.7,55.2-16.2c17.7-10.5,31.5-24.8,39.1-40.3c4-8.2,6.1-16.1,6.2-23.8
	c0.1-7.1-1.4-13.6-4.6-19.4c4.7-9.9,7.2-19.6,7.3-29.1c0.1-8.2-1.5-15.8-4.9-22.7c0.3-0.6,0.6-1.1,0.9-1.7
	c12.8-26.3,13.4-51.9,1.7-72.3c-6-10.4-14.8-18.9-26.3-25.1c-11.8-6.5-25.8-10.4-41.7-11.5c-63.3-4.4-136.8,37-163.9,92.2
	C945.2,185.2,944.6,210.9,956.4,231.3z M1183.1,226.1c-3.6-5.4-8.6-9.9-14.8-13.4c-1.5-0.9-3.1-1.5-4.7-2.3
	c8.7-9.2,16.1-19.1,21.9-29.5c2.5,6,3.8,12.5,3.6,19.4C1188.9,208.7,1187,217.3,1183.1,226.1z M1041.1,297.6
	c5.5,1.5,11.5,2.6,17.9,3.1c2.3,0.2,4.9,0.2,7.3,0.2c22.7,0,47.3-7.2,69.3-20.3c21.2-12.6,38-29.6,47.8-48.1
	c2.3,5,3.4,10.6,3.4,16.4c-0.1,7.4-2.1,15-5.8,22.7c-7.3,14.9-20.7,28.8-37.7,39c-17,10.2-36,15.7-53.5,15.7c-1.9,0-3.8-0.1-5.5-0.2
	c-9.3-0.7-17.5-2.9-24.4-6.7c-6.6-3.6-11.7-8.5-15.2-14.6C1042.9,302.5,1041.8,300.1,1041.1,297.6z M1039.4,285.6
	c0.1-5.7,1.3-11.7,3.6-17.8c42.9-2.8,87.8-24.3,118.3-55.3c1.8,0.8,3.5,1.5,5.2,2.4c6.5,3.5,11.6,8.4,15,14.2
	c-9.2,18.8-26,36.1-47.6,48.9c-21.4,12.8-45.4,19.8-67.4,19.8c-2.3,0-4.7-0.1-7-0.2c-7-0.4-13.5-1.7-19.4-3.6
	C1039.6,291.4,1039.4,288.5,1039.4,285.6z M1115.9,220.9l5.5-11.4c5.1-0.9,10.2-1.3,15.1-1.3c1.9,0,3.8,0.1,5.5,0.2
	c5.8,0.4,11.3,1.4,16.1,3.1c-29.5,29.6-72.6,50.2-113.9,53.2c0.2-0.7,0.6-1.2,0.9-1.9c7.3-14.9,20.7-28.8,37.7-39
	c8.1-4.9,16.7-8.6,25.3-11.3l-3.6,7.5L1115.9,220.9z M1112,205.3l-14.3-1c-1.3-0.1-2.2-0.4-2.5-0.9c-0.4-0.6-0.3-1.3,0.1-2.3
	c0.4-1,1.2-1.8,2.1-2.2s2-0.6,3.3-0.6l14.3,1L1112,205.3z M1007,265.3c5.5,1.2,11.3,2,17.3,2.4c3.1,0.2,6.3,0.3,9.4,0.3
	c2.1,0,4.3,0,6.4-0.1c-2.3,6.1-3.4,12-3.5,17.9c0,2.4,0.1,4.9,0.4,7.2c-2.9-1.1-5.6-2.3-8.2-3.8c-8.4-4.6-14.8-10.8-19.2-18.3
	C1008.6,269.1,1007.7,267.3,1007,265.3z M1003.5,246.6c0.1-9.3,2.6-19,7.4-28.7c2.6-5.4,6-10.8,9.8-15.9l2.8,0.2l2.1-4.2l-1.5-0.1
	c8.8-10.6,20-20.2,32.9-28.1c4,5,10.6,8.4,19.3,9.2c2.4,0.2,3.6,0.2,5.8,0.1l10.9-21.2c-0.6,0-1,0-1.5,0c-2.1-0.2-3.9-0.9-5.1-1.9
	c13.2-4.5,26.7-6.8,39.5-6.8c2.3,0,4.7,0.1,7,0.2c11.7,0.8,22.1,3.6,30.8,8.4c8.4,4.6,14.8,10.8,19.2,18.3c0.2,0.4,0.6,0.9,0.8,1.3
	c-5.8,11.4-13.8,22.1-23.3,31.9c-5.4-1.9-11.3-3.1-17.7-3.5c-6.5-0.4-13.2-0.1-19.9,0.9l6.6-13.7l-29-2c-4.6-0.3-8.3,0.2-11,1.5
	c-2.6,1.3-4.9,3.6-6.4,6.7c-1.1,2.3-1.4,4.2-0.9,5.5c0.6,1.3,1.9,2.2,3.9,2.8l0.2,0.1l-0.3,0.7l-12.6,9.6l12,0.9l9.9-8.1l0.1-0.1
	l8.9,0.6c-26.5,9-50.7,27.9-61.8,50.8c-0.4,1-0.9,1.9-1.3,2.8c-5.5,0.2-10.9,0.2-16.2-0.1c-6.8-0.4-13.4-1.5-19.5-3
	C1004.2,257,1003.5,251.9,1003.5,246.6z M1078.6,121.3c0.2,0.1,0.3,0.2,0.6,0.2c0.2,0.1,0.4,0.1,0.7,0.1h0.3c0.4,0,0.9,0.1,1.3,0.1
	c-0.9,0.4-1.7,0.8-2.5,1.2c-0.1-0.2-0.1-0.4-0.2-0.7C1078.7,122,1078.6,121.7,1078.6,121.3z M1066.2,131.8c-2-4-2.4-9.2-2.4-10.6
	l0.1-0.1c0.2-0.2,0.4-0.4,0.7-0.7c1.7-1.7,3.6-2.6,6.2-3.1c1.3-0.2,2.8-0.1,4.2,0.2l0.8,0.2c0.9,0.2,2.1,0.6,3.2,0.8
	c1.4,0.3,3,0,4.2-1c0.3-0.2,0.7-0.4,1-0.8c0.1-0.1,0.3-0.1,0.6-0.1h0.1c0.3,0.1,0.3,0.2,0.3,0.2c0.1,0.2,0.2,1-1,2.2
	c-0.6,0.6-1.3,0.9-2.1,0.9c-0.6,0-1.2,0-1.8-0.1h-0.3c-0.1,0-0.3,0-0.3-0.1l0,0c-0.2,0-0.4-0.2-0.7-0.3c-0.6-0.3-0.9-0.4-1.3-0.2
	c-0.2,0.1-0.3,0.3-0.4,0.6c-0.2,0.9-0.2,1.9,0.1,2.9c0.1,0.3,0.2,0.6,0.3,0.9c0.6,1.7,1.2,3.2,1.8,4.6c0.3,0.8,0.7,1.5,1,2.3
	c0.3,0.9,0.8,1.9,1.1,2.9c0.1,0.3,0.2,0.7,0.1,0.9c0,0.2-0.1,0.2-0.1,0.2c-0.1,0-0.3,0.1-0.8,0c-0.2,0-0.4-0.1-0.7-0.1
	c-1.1-0.3-1.9-0.9-2.5-1.8c-0.7-1-1.4-2.1-2.1-3.1l-0.3-0.6c-0.4-0.7-0.9-1.3-1.3-2c-0.2-0.2-0.4-0.4-0.7-0.7c0,0,0,0-0.1-0.1
	l-0.1-0.1l-0.1-0.1c-0.1-0.1-0.3-0.2-0.6-0.2c-0.1,0-0.2,0-0.3,0.1l-0.4,0.2c-0.3,0.2-0.6,0.7-0.3,1l0.1,0.3l0,0
	c0.1,0.2,0.2,0.4,0.3,0.6l0.7,1.3c0.2,0.4,1,1.8,1.1,1.8c0.7,0.8,2.8,3.4,3.1,4.2c0.2,0.7,0.2,0.8-0.3,1.1c0,0-0.2,0.1-1-0.1
	c-0.3-0.1-0.8-0.2-1.2-0.4c-0.9-0.3-1.2-1-1.7-1.7l-0.1-0.2c-0.1-0.1-0.2-0.3-0.4-0.7l-0.3-0.6c-0.7-1-1.9-3.1-1.9-3.1
	c-0.1-0.2-0.2-0.3-0.3-0.4c-0.1-0.1-0.1-0.1-0.2-0.2l-0.1-0.1l-0.1-0.1c-0.2-0.2-0.6-0.4-0.9-0.2l-0.1,0c-0.4,0.2-0.7,0.6-0.6,1
	c0,0,0.3,0.7,0.3,0.8c0.1,0.3,0.3,0.7,0.7,1.3c0.2,0.4,0.8,1.4,1.5,2.5c0.2,0.4,0.4,0.8,0.6,0.9c0,0.1,0,0.1,0,0.2
	c-0.1,0-0.3,0-0.4,0c-0.1,0-1.6-1.4-1.6-1.4C1067.6,133.6,1066.8,132.8,1066.2,131.8z M961.3,159.8c26.3-53.9,98-94.1,159.8-89.8
	c15.3,1.1,28.9,4.9,40.4,11c11,6.1,19.5,14.1,25.3,24.2c11.1,19.3,10.7,43.7-1.2,68.6c-4.6-7.7-11.3-14-19.9-18.7
	c-9-5-19.9-7.9-32-8.8c-2.3-0.2-4.9-0.2-7.3-0.2c-13.6,0-27.8,2.5-41.7,7.4c-0.8-1.9-0.7-4.1,0.6-6.4c2.8-5.3,10-9.3,16.2-8.7
	c0.6,0,1.1,0.1,1.5,0.2l10.9-21.2c-1.8-0.4-3.3-0.7-5.5-0.8c-7.4-0.7-15.3,0.7-22.8,3.5c1-1.1,1.4-2.2,1.1-3.3
	c-0.1-0.4-0.4-1.1-1.3-1.3c-0.1,0-0.2,0-0.3-0.1c-0.6-0.1-1.2,0-1.7,0.3c-0.4,0.3-0.9,0.6-1.2,0.8c-0.9,0.7-1.9,0.9-2.9,0.7
	c-1.1-0.2-2.2-0.6-3.2-0.8l-0.8-0.2c-1.7-0.4-3.2-0.6-4.9-0.3c-2.9,0.4-5.2,1.7-7.1,3.5c-0.2,0.2-0.4,0.4-0.7,0.7l-0.3,0.3
	c-0.1,0.1-0.2,0.4-0.2,0.7c0,0.9,0.2,7.3,2.9,11.9c-3.6,3.5-6.7,7.5-8.9,11.7c-4.4,8.6-4.4,16.7-0.8,22.8
	c-13.8,8.5-25.7,18.8-34.9,30.1l-18.9-1.3l-2.1,4.2l8.6,0.6l-5.8,11.9l6.3,0.4l5.8-11.9l2.8,0.2c-3.6,5-6.7,10-9.4,15.3
	c-5,10.2-7.5,20.2-7.7,29.9c-0.1,4.9,0.4,9.4,1.7,13.8c-6.2-1.8-11.9-4.2-17.2-7.1c-11-6.1-19.4-14.1-25.3-24.1
	C948.3,209.9,948.8,185.1,961.3,159.8z"/>
<path d="M1443.3,95.3c-0.2,1-0.4,1.9-0.7,2.8c-5.2,14.1-10.4,28.1-15.6,42.2c-0.2,0.7-0.4,1.3-0.7,2.2h15.9
	c-0.2-0.8-0.4-1.5-0.6-2.2c-1.8-4.8-3.6-9.6-5.4-14.4c-0.3-0.8-0.4-1.9-0.1-2.6c2.9-7.6,6-15.2,9-22.8c0.1-0.2,0.2-0.3,0.5-0.6
	c0.3,0.7,0.6,1.2,0.8,1.7c5.2,13,10.5,25.9,15.7,38.9c0.6,1.6,1.4,2.2,3.1,2.1c2.5-0.2,5-0.1,7.5,0c0.9,0,2-0.3,2.1,1.3
	c0.1,1.4-0.4,2-1.8,2.3c-2.5,0.6-4.9,1.3-7.7,2c3.1,7.8,6.2,15.4,9.3,23.3c-0.8,0.1-1.4,0.2-2,0.2c-5.8,0-11.5-0.1-17.3,0
	c-1.6,0-2.2-0.6-2.7-2c-1.8-4.9-3.7-9.8-5.5-14.8c-0.5-1.4-1.1-1.7-2.5-1.3c-8.4,2.3-16.9,4.6-25.3,6.8c-1.4,0.4-2,1-2.4,2.3
	c-0.7,2.5-1.4,5.1-2.3,7.5c-0.2,0.5-0.9,1.3-1.3,1.3c-7.8,0.1-15.6,0.1-23.7,0.1c0.4-1.1,0.7-1.8,1.1-2.6
	c7.5-16.7,15-33.5,22.4-50.2c3.3-7.3,6.5-14.5,9.8-21.8c0.3-0.7,0.8-1.3,1.2-2H1443.3z"/>
<path d="M1534.1,95.3c3,1.6,6.6,2.7,9.1,4.9c13.1,11.7,11.3,31.6-3.5,41.1c-1.5,0.9-3,1.8-4.7,2.8c2.8,4.4,5.5,8.7,8.3,13.1
	c2.7,4.3,5.5,8.6,8.4,13.2c-1.1,0-1.8,0.1-2.5,0.1c-6.5,0-13.1-0.1-19.6,0c-1.7,0-2.7-0.5-3.5-2c-3.1-5.9-6.4-11.7-9.5-17.6
	c-0.8-1.5-1.7-2-3.3-1.9c-2,0.1-4.1,0-6.3,0c0-5.7,0-11,0.1-16.4c0-0.3,1.2-1,1.9-1c5-0.1,9.9,0,14.9-0.1c1.1,0,2.6-0.6,3.2-1.4
	c1.4-1.9,2.9-3.9,3.6-6.2c1.2-3.7-1.2-8.9-4.6-10.8c-0.6-0.3-1.3-0.3-2-0.3c-5.4-0.1-10.8-0.1-16.2-0.1c-0.2,0-0.4-0.1-0.5-0.2V95.3
	H1534.1z"/>
<path d="M1380.7,95.3c0.1,5.8,0.2,11.6,0.2,17.5c0,18.8-0.1,37.5-0.1,56.3c0,0.8,0,1.7,0,2.6h-21.6V169c0-17.3,0-34.5,0-51.8
	c0-2-0.5-2.6-2.6-2.6c-6.5,0.1-13.1,0-19.7,0c-0.1-0.7-0.2-1.2-0.2-1.8c0-5.2,0-10.4,0-15.6c0-0.7,0.3-1.3,0.5-2H1380.7z"/>
<path d="M1503.4,95.3c0.1,0.8,0.3,1.5,0.3,2.3c0,24,0,47.9,0,71.9v2.2h-21.9v-2.4c0-23.8,0-47.6,0-71.4c0-0.8,0.2-1.7,0.3-2.5
	H1503.4z"/>
<path d="M1403.7,95.3v19.2h-21v-3.4c0-4.5,0-9.1,0-13.6c0-0.7,0.3-1.5,0.5-2.2H1403.7z"/>
<path d="M1389.8,258c0.3-0.7,0.5-1.4,0.8-2.1c10.8-24.1,21.5-48.1,32.2-72.2c0.6-1.4,1.4-2,3-2c5.1,0.1,10.2,0,15.3,0h2.4
	c-5.9,15.9-11.6,31.4-17.4,47.1h16c-0.2-0.8-0.4-1.5-0.7-2.2c-1.8-4.7-3.6-9.4-5.3-14.2c-0.3-0.8-0.6-1.7-0.3-2.4
	c3-7.9,6.2-15.9,9.5-24.3c0.5,1,0.8,1.7,1.1,2.3c5.2,13,10.4,26,15.6,39c0.6,1.5,1.3,2.1,2.9,2c3.1-0.1,6.2,0,9.3,0
	c0.7,2.9,0.7,3-2,3.7c-2.3,0.6-4.5,1.2-7.1,1.9c3.1,7.8,6.2,15.5,9.4,23.4c-1,0.1-1.6,0.1-2.3,0.1c-5.6,0-11.2,0-16.8,0
	c-1.5,0-2.3-0.4-2.8-1.9c-1.8-5-3.7-10-5.6-15c-0.5-1.3-1-1.6-2.3-1.2c-8.6,2.4-17.2,4.6-25.7,7c-0.8,0.2-1.6,1.1-1.9,1.9
	c-0.9,2.5-1.5,5.2-2.4,7.7c-0.2,0.6-1.1,1.4-1.6,1.4c-7.6,0.1-15.2,0-22.8,0C1390.2,258.3,1390.1,258.2,1389.8,258"/>
<path d="M1535,230.5c5.6,8.8,11,17.3,16.7,26.3h-3c-6.5,0-12.9,0-19.4,0c-1.5,0-2.4-0.4-3.2-1.8c-3.2-6-6.5-11.8-9.6-17.8
	c-0.7-1.4-1.5-2-3.1-1.9c-2.1,0.1-4.2,0-6.4,0v-17.3h7.3c3.3,0,6.5,0,9.8,0c0.7,0,1.6-0.2,2.1-0.6c5.9-4.6,6.2-12.1,0.7-17.2
	c-0.7-0.7-2-1.1-3-1.1c-5-0.1-10.1-0.1-15.1-0.1c-1.4,0-2-0.4-2-1.9c0.1-5,0-10,0-15.4c5.7,0,11.2,0,16.6,0c2.1,0,4.3,0.2,6.4,0
	c7.5-0.6,13,2.8,16.9,8.7c5.1,7.7,6.5,16.2,3.4,25c-2,5.6-6.1,9.5-11.1,12.6C1537.9,228.9,1536.5,229.6,1535,230.5"/>
<path d="M1380.9,181.9c0,5.8,0,11.4,0,17c0,19-0.1,37.9-0.1,56.9c0,2-0.5,2.5-2.5,2.5c-5.6-0.1-11.2-0.1-16.8,0
	c-1.9,0-2.4-0.6-2.4-2.4c0.1-17.4,0-34.8,0-52.2V201c-1,0-1.8-0.1-2.5-0.1c-6,0-11.9,0-17.9,0c-1.5,0-2.1-0.3-2.1-2
	c0.1-5.6,0-11.2,0-17H1380.9z"/>
<path d="M1481.9,181.9h21.7c0,0.8,0.1,1.4,0.1,2.1c0,24,0,47.9,0.1,71.9c0,2-0.6,2.5-2.5,2.5c-5.8-0.1-11.5-0.1-17.3,0
	c-1.5,0-2.2-0.3-2.2-2c0-24.4,0-48.8,0-73.2C1481.8,182.9,1481.9,182.5,1481.9,181.9"/>
<rect x="1382.9" y="182" width="20.8" height="18.8"/>
<path d="M1408.2,300.3c-8.3,0-15.1-6.7-15.1-14.9c0-8.3,6.6-15,15-15.1c8.2-0.1,15.1,6.7,15.1,15
	C1423.2,293.5,1416.5,300.2,1408.2,300.3 M1418.6,285.5c0.1-5.9-4.3-10.5-10.2-10.7c-5.8-0.1-10.6,4.4-10.7,10.1
	c-0.1,6,4.4,10.6,10.3,10.8C1413.7,295.9,1418.5,291.3,1418.6,285.5"/>
<path d="M1453.6,285.1c0-8.3,6.9-15,15.1-14.9c8.2,0.1,14.9,6.8,14.9,14.9c0,8.3-6.7,15.1-15,15.1
	C1460.3,300.3,1453.6,293.6,1453.6,285.1 M1458.2,285.2c0,5.8,4.6,10.5,10.3,10.6c5.9,0.1,10.6-4.6,10.6-10.5
	c0-5.8-4.6-10.4-10.4-10.4C1462.9,274.8,1458.2,279.4,1458.2,285.2"/>
<path d="M1516.3,299.4c-4.4,1-5.1,0.7-7.4-2.5c-1.9-2.7-3.8-5.3-5.7-8.1c-5,2.2-3.6,6.8-4.1,10.7h-4.3c-0.1-0.6-0.1-1.3-0.1-1.9
	c0-8.2,0-16.5,0-24.7c0-1.8,0.6-2.2,2.2-2.1c2.8,0.1,5.5-0.1,8.3,0.1c6.6,0.4,10.5,5.8,7.9,11.2c-1,2-3.1,3.5-5,5.5
	C1510.5,291.1,1513.3,295.2,1516.3,299.4 M1499.3,285.2c2.8-1.2,5.2-2.1,7.6-3.2c1.6-0.7,2.3-2.1,2.1-3.8c-0.2-1.6-1.5-2.4-3-2.6
	c-1.9-0.2-3.8-0.2-5.7-0.1c-0.4,0-1,0.6-1,1C1499.2,279.3,1499.3,282.1,1499.3,285.2"/>
<path d="M1524.3,291.1c1.2,0,2.2-0.1,3.3,0.1c0.5,0.1,1,0.7,1.4,1.1c0.9,1,1.5,2.3,2.6,2.9c1.9,1.1,4.7,0.3,5.7-1.4
	c1.1-1.8,0.5-4.1-1.4-5.6c-0.9-0.7-2-1.3-3.1-1.8c-1.2-0.7-2.6-1.2-3.7-2c-3.3-2.2-4.5-5.5-3.4-8.8c1.1-3.2,4.2-5.3,7.7-5.3
	c3.6,0,6.7,2.4,7.7,5.9c0.1,0.5,0.2,1.1,0.3,1.6c-2.8,0.9-3.6,0.5-5.4-1.4c-0.8-0.8-2.4-1.3-3.5-1.2c-0.8,0.1-2.2,1.3-2.2,2
	c-0.1,1.1,0.6,2.6,1.4,3.2c1.9,1.4,4.1,2.3,6.1,3.5c2.7,1.6,4.7,3.7,4.9,7c0.4,5.4-3,9.1-8.9,9.4
	C1528.7,300.6,1524.5,296.7,1524.3,291.1"/>
<path d="M1381.3,292.9c0.9,0.9,1.9,1.8,2.9,2.6c-2.2,3.7-8.2,5.6-13.4,4.4c-6-1.5-10.6-7-11.1-13.4c-0.5-6.7,3.3-12.9,9.3-15.3
	c5.3-2.1,11.6-0.7,15.3,3.7c-1,0.9-2,1.9-3,2.8c-6.6-3.8-11.1-3.6-14.6,0.6c-3.4,4.1-3.4,9.9,0,13.9
	C1370.4,296.5,1374.8,296.7,1381.3,292.9"/>
<path d="M1438.7,295.4h7.5v4.3c-3.7,0-7.3,0-10.9-0.1c-0.4,0-1.1-0.8-1.1-1.2c-0.1-9.1,0-18.2,0-27.4h4.5V295.4z"/>
<polygon points="1295.9,224.6 1265.8,224.6 1254.6,211.7 1243.3,224.6 1213.2,224.6 1238.3,197.8 1216,173.6 1245.1,173.6 
	1254.7,185 1264.2,173.6 1293.1,173.6 1270.8,197.8 "/>
</svg>
