<svg width="571" height="664" viewBox="0 0 571 664" fill="none" xmlns="http://www.w3.org/2000/svg">
<circle cx="502" cy="573" r="3" transform="rotate(-90 502 573)" fill="#F3F0EA"/>
<circle cx="502" cy="463" r="3" transform="rotate(-90 502 463)" fill="#F3F0EA"/>
<circle cx="502" cy="661" r="3" transform="rotate(-90 502 661)" fill="#F3F0EA"/>
<circle cx="502" cy="551" r="3" transform="rotate(-90 502 551)" fill="#F3F0EA"/>
<circle cx="502" cy="441" r="3" transform="rotate(-90 502 441)" fill="#F3F0EA"/>
<circle cx="502" cy="639" r="3" transform="rotate(-90 502 639)" fill="#F3F0EA"/>
<circle cx="502" cy="529" r="3" transform="rotate(-90 502 529)" fill="#F3F0EA"/>
<circle cx="502" cy="419" r="3" transform="rotate(-90 502 419)" fill="#F3F0EA"/>
<circle cx="502" cy="617" r="3" transform="rotate(-90 502 617)" fill="#F3F0EA"/>
<circle cx="502" cy="507" r="3" transform="rotate(-90 502 507)" fill="#F3F0EA"/>
<circle cx="502" cy="397" r="3" transform="rotate(-90 502 397)" fill="#F3F0EA"/>
<circle cx="502" cy="595" r="3" transform="rotate(-90 502 595)" fill="#F3F0EA"/>
<circle cx="502" cy="485" r="3" transform="rotate(-90 502 485)" fill="#F3F0EA"/>
<circle cx="502" cy="375" r="3" transform="rotate(-90 502 375)" fill="#F3F0EA"/>
<circle cx="546" cy="573" r="3" transform="rotate(-90 546 573)" fill="#F3F0EA"/>
<circle cx="546" cy="463" r="3" transform="rotate(-90 546 463)" fill="#F3F0EA"/>
<circle cx="546" cy="661" r="3" transform="rotate(-90 546 661)" fill="#F3F0EA"/>
<circle cx="546" cy="551" r="3" transform="rotate(-90 546 551)" fill="#F3F0EA"/>
<circle cx="546" cy="441" r="3" transform="rotate(-90 546 441)" fill="#F3F0EA"/>
<circle cx="546" cy="639" r="3" transform="rotate(-90 546 639)" fill="#F3F0EA"/>
<circle cx="546" cy="529" r="3" transform="rotate(-90 546 529)" fill="#F3F0EA"/>
<circle cx="546" cy="419" r="3" transform="rotate(-90 546 419)" fill="#F3F0EA"/>
<circle cx="546" cy="617" r="3" transform="rotate(-90 546 617)" fill="#F3F0EA"/>
<circle cx="546" cy="507" r="3" transform="rotate(-90 546 507)" fill="#F3F0EA"/>
<circle cx="546" cy="397" r="3" transform="rotate(-90 546 397)" fill="#F3F0EA"/>
<circle cx="546" cy="595" r="3" transform="rotate(-90 546 595)" fill="#F3F0EA"/>
<circle cx="546" cy="485" r="3" transform="rotate(-90 546 485)" fill="#F3F0EA"/>
<circle cx="546" cy="375" r="3" transform="rotate(-90 546 375)" fill="#F3F0EA"/>
<circle cx="524" cy="573" r="3" transform="rotate(-90 524 573)" fill="#F3F0EA"/>
<circle cx="524" cy="463" r="3" transform="rotate(-90 524 463)" fill="#F3F0EA"/>
<circle cx="524" cy="661" r="3" transform="rotate(-90 524 661)" fill="#F3F0EA"/>
<circle cx="524" cy="551" r="3" transform="rotate(-90 524 551)" fill="#F3F0EA"/>
<circle cx="524" cy="441" r="3" transform="rotate(-90 524 441)" fill="#F3F0EA"/>
<circle cx="524" cy="639" r="3" transform="rotate(-90 524 639)" fill="#F3F0EA"/>
<circle cx="524" cy="529" r="3" transform="rotate(-90 524 529)" fill="#F3F0EA"/>
<circle cx="524" cy="419" r="3" transform="rotate(-90 524 419)" fill="#F3F0EA"/>
<circle cx="524" cy="617" r="3" transform="rotate(-90 524 617)" fill="#F3F0EA"/>
<circle cx="524" cy="507" r="3" transform="rotate(-90 524 507)" fill="#F3F0EA"/>
<circle cx="524" cy="397" r="3" transform="rotate(-90 524 397)" fill="#F3F0EA"/>
<circle cx="524" cy="595" r="3" transform="rotate(-90 524 595)" fill="#F3F0EA"/>
<circle cx="524" cy="485" r="3" transform="rotate(-90 524 485)" fill="#F3F0EA"/>
<circle cx="524" cy="375" r="3" transform="rotate(-90 524 375)" fill="#F3F0EA"/>
<circle cx="568" cy="573" r="3" transform="rotate(-90 568 573)" fill="#F3F0EA"/>
<circle cx="568" cy="463" r="3" transform="rotate(-90 568 463)" fill="#F3F0EA"/>
<circle cx="568" cy="661" r="3" transform="rotate(-90 568 661)" fill="#F3F0EA"/>
<circle cx="568" cy="551" r="3" transform="rotate(-90 568 551)" fill="#F3F0EA"/>
<circle cx="568" cy="441" r="3" transform="rotate(-90 568 441)" fill="#F3F0EA"/>
<circle cx="568" cy="639" r="3" transform="rotate(-90 568 639)" fill="#F3F0EA"/>
<circle cx="568" cy="529" r="3" transform="rotate(-90 568 529)" fill="#F3F0EA"/>
<circle cx="568" cy="419" r="3" transform="rotate(-90 568 419)" fill="#F3F0EA"/>
<circle cx="568" cy="617" r="3" transform="rotate(-90 568 617)" fill="#F3F0EA"/>
<circle cx="568" cy="507" r="3" transform="rotate(-90 568 507)" fill="#F3F0EA"/>
<circle cx="568" cy="397" r="3" transform="rotate(-90 568 397)" fill="#F3F0EA"/>
<circle cx="568" cy="595" r="3" transform="rotate(-90 568 595)" fill="#F3F0EA"/>
<circle cx="568" cy="485" r="3" transform="rotate(-90 568 485)" fill="#F3F0EA"/>
<circle cx="568" cy="375" r="3" transform="rotate(-90 568 375)" fill="#F3F0EA"/>
<circle cx="414" cy="573" r="3" transform="rotate(-90 414 573)" fill="#F3F0EA"/>
<circle cx="414" cy="463" r="3" transform="rotate(-90 414 463)" fill="#F3F0EA"/>
<circle cx="414" cy="661" r="3" transform="rotate(-90 414 661)" fill="#F3F0EA"/>
<circle cx="414" cy="551" r="3" transform="rotate(-90 414 551)" fill="#F3F0EA"/>
<circle cx="414" cy="441" r="3" transform="rotate(-90 414 441)" fill="#F3F0EA"/>
<circle cx="414" cy="639" r="3" transform="rotate(-90 414 639)" fill="#F3F0EA"/>
<circle cx="414" cy="529" r="3" transform="rotate(-90 414 529)" fill="#F3F0EA"/>
<circle cx="414" cy="419" r="3" transform="rotate(-90 414 419)" fill="#F3F0EA"/>
<circle cx="414" cy="617" r="3" transform="rotate(-90 414 617)" fill="#F3F0EA"/>
<circle cx="414" cy="507" r="3" transform="rotate(-90 414 507)" fill="#F3F0EA"/>
<circle cx="414" cy="397" r="3" transform="rotate(-90 414 397)" fill="#F3F0EA"/>
<circle cx="414" cy="595" r="3" transform="rotate(-90 414 595)" fill="#F3F0EA"/>
<circle cx="414" cy="485" r="3" transform="rotate(-90 414 485)" fill="#F3F0EA"/>
<circle cx="414" cy="375" r="3" transform="rotate(-90 414 375)" fill="#F3F0EA"/>
<circle cx="458" cy="573" r="3" transform="rotate(-90 458 573)" fill="#F3F0EA"/>
<circle cx="458" cy="463" r="3" transform="rotate(-90 458 463)" fill="#F3F0EA"/>
<circle cx="458" cy="661" r="3" transform="rotate(-90 458 661)" fill="#F3F0EA"/>
<circle cx="458" cy="551" r="3" transform="rotate(-90 458 551)" fill="#F3F0EA"/>
<circle cx="458" cy="441" r="3" transform="rotate(-90 458 441)" fill="#F3F0EA"/>
<circle cx="458" cy="639" r="3" transform="rotate(-90 458 639)" fill="#F3F0EA"/>
<circle cx="458" cy="529" r="3" transform="rotate(-90 458 529)" fill="#F3F0EA"/>
<circle cx="458" cy="419" r="3" transform="rotate(-90 458 419)" fill="#F3F0EA"/>
<circle cx="458" cy="617" r="3" transform="rotate(-90 458 617)" fill="#F3F0EA"/>
<circle cx="458" cy="507" r="3" transform="rotate(-90 458 507)" fill="#F3F0EA"/>
<circle cx="458" cy="397" r="3" transform="rotate(-90 458 397)" fill="#F3F0EA"/>
<circle cx="458" cy="595" r="3" transform="rotate(-90 458 595)" fill="#F3F0EA"/>
<circle cx="458" cy="485" r="3" transform="rotate(-90 458 485)" fill="#F3F0EA"/>
<circle cx="458" cy="375" r="3" transform="rotate(-90 458 375)" fill="#F3F0EA"/>
<circle cx="436" cy="573" r="3" transform="rotate(-90 436 573)" fill="#F3F0EA"/>
<circle cx="436" cy="463" r="3" transform="rotate(-90 436 463)" fill="#F3F0EA"/>
<circle cx="436" cy="661" r="3" transform="rotate(-90 436 661)" fill="#F3F0EA"/>
<circle cx="436" cy="551" r="3" transform="rotate(-90 436 551)" fill="#F3F0EA"/>
<circle cx="436" cy="441" r="3" transform="rotate(-90 436 441)" fill="#F3F0EA"/>
<circle cx="436" cy="639" r="3" transform="rotate(-90 436 639)" fill="#F3F0EA"/>
<circle cx="436" cy="529" r="3" transform="rotate(-90 436 529)" fill="#F3F0EA"/>
<circle cx="436" cy="419" r="3" transform="rotate(-90 436 419)" fill="#F3F0EA"/>
<circle cx="436" cy="617" r="3" transform="rotate(-90 436 617)" fill="#F3F0EA"/>
<circle cx="436" cy="507" r="3" transform="rotate(-90 436 507)" fill="#F3F0EA"/>
<circle cx="436" cy="397" r="3" transform="rotate(-90 436 397)" fill="#F3F0EA"/>
<circle cx="436" cy="595" r="3" transform="rotate(-90 436 595)" fill="#F3F0EA"/>
<circle cx="436" cy="485" r="3" transform="rotate(-90 436 485)" fill="#F3F0EA"/>
<circle cx="436" cy="375" r="3" transform="rotate(-90 436 375)" fill="#F3F0EA"/>
<circle cx="480" cy="573" r="3" transform="rotate(-90 480 573)" fill="#F3F0EA"/>
<circle cx="480" cy="463" r="3" transform="rotate(-90 480 463)" fill="#F3F0EA"/>
<circle cx="480" cy="661" r="3" transform="rotate(-90 480 661)" fill="#F3F0EA"/>
<circle cx="480" cy="551" r="3" transform="rotate(-90 480 551)" fill="#F3F0EA"/>
<circle cx="480" cy="441" r="3" transform="rotate(-90 480 441)" fill="#F3F0EA"/>
<circle cx="480" cy="639" r="3" transform="rotate(-90 480 639)" fill="#F3F0EA"/>
<circle cx="480" cy="529" r="3" transform="rotate(-90 480 529)" fill="#F3F0EA"/>
<circle cx="480" cy="419" r="3" transform="rotate(-90 480 419)" fill="#F3F0EA"/>
<circle cx="480" cy="617" r="3" transform="rotate(-90 480 617)" fill="#F3F0EA"/>
<circle cx="480" cy="507" r="3" transform="rotate(-90 480 507)" fill="#F3F0EA"/>
<circle cx="480" cy="397" r="3" transform="rotate(-90 480 397)" fill="#F3F0EA"/>
<circle cx="480" cy="595" r="3" transform="rotate(-90 480 595)" fill="#F3F0EA"/>
<circle cx="480" cy="485" r="3" transform="rotate(-90 480 485)" fill="#F3F0EA"/>
<circle cx="480" cy="375" r="3" transform="rotate(-90 480 375)" fill="#F3F0EA"/>
<circle cx="91" cy="201" r="3" transform="rotate(-90 91 201)" fill="#F3F0EA"/>
<circle cx="91" cy="91" r="3" transform="rotate(-90 91 91)" fill="#F3F0EA"/>
<circle cx="91" cy="289" r="3" transform="rotate(-90 91 289)" fill="#F3F0EA"/>
<circle cx="91" cy="179" r="3" transform="rotate(-90 91 179)" fill="#F3F0EA"/>
<circle cx="91" cy="69" r="3" transform="rotate(-90 91 69)" fill="#F3F0EA"/>
<circle cx="91" cy="267" r="3" transform="rotate(-90 91 267)" fill="#F3F0EA"/>
<circle cx="91" cy="157" r="3" transform="rotate(-90 91 157)" fill="#F3F0EA"/>
<circle cx="91" cy="47" r="3" transform="rotate(-90 91 47)" fill="#F3F0EA"/>
<circle cx="91" cy="245" r="3" transform="rotate(-90 91 245)" fill="#F3F0EA"/>
<circle cx="91" cy="135" r="3" transform="rotate(-90 91 135)" fill="#F3F0EA"/>
<circle cx="91" cy="25" r="3" transform="rotate(-90 91 25)" fill="#F3F0EA"/>
<circle cx="91" cy="223" r="3" transform="rotate(-90 91 223)" fill="#F3F0EA"/>
<circle cx="91" cy="113" r="3" transform="rotate(-90 91 113)" fill="#F3F0EA"/>
<circle cx="91" cy="3" r="3" transform="rotate(-90 91 3)" fill="#F3F0EA"/>
<circle cx="135" cy="201" r="3" transform="rotate(-90 135 201)" fill="#F3F0EA"/>
<circle cx="135" cy="91" r="3" transform="rotate(-90 135 91)" fill="#F3F0EA"/>
<circle cx="135" cy="289" r="3" transform="rotate(-90 135 289)" fill="#F3F0EA"/>
<circle cx="135" cy="179" r="3" transform="rotate(-90 135 179)" fill="#F3F0EA"/>
<circle cx="135" cy="69" r="3" transform="rotate(-90 135 69)" fill="#F3F0EA"/>
<circle cx="135" cy="267" r="3" transform="rotate(-90 135 267)" fill="#F3F0EA"/>
<circle cx="135" cy="157" r="3" transform="rotate(-90 135 157)" fill="#F3F0EA"/>
<circle cx="135" cy="47" r="3" transform="rotate(-90 135 47)" fill="#F3F0EA"/>
<circle cx="135" cy="245" r="3" transform="rotate(-90 135 245)" fill="#F3F0EA"/>
<circle cx="135" cy="135" r="3" transform="rotate(-90 135 135)" fill="#F3F0EA"/>
<circle cx="135" cy="25" r="3" transform="rotate(-90 135 25)" fill="#F3F0EA"/>
<circle cx="135" cy="223" r="3" transform="rotate(-90 135 223)" fill="#F3F0EA"/>
<circle cx="135" cy="113" r="3" transform="rotate(-90 135 113)" fill="#F3F0EA"/>
<circle cx="135" cy="3" r="3" transform="rotate(-90 135 3)" fill="#F3F0EA"/>
<circle cx="113" cy="201" r="3" transform="rotate(-90 113 201)" fill="#F3F0EA"/>
<circle cx="113" cy="91" r="3" transform="rotate(-90 113 91)" fill="#F3F0EA"/>
<circle cx="113" cy="289" r="3" transform="rotate(-90 113 289)" fill="#F3F0EA"/>
<circle cx="113" cy="179" r="3" transform="rotate(-90 113 179)" fill="#F3F0EA"/>
<circle cx="113" cy="69" r="3" transform="rotate(-90 113 69)" fill="#F3F0EA"/>
<circle cx="113" cy="267" r="3" transform="rotate(-90 113 267)" fill="#F3F0EA"/>
<circle cx="113" cy="157" r="3" transform="rotate(-90 113 157)" fill="#F3F0EA"/>
<circle cx="113" cy="47" r="3" transform="rotate(-90 113 47)" fill="#F3F0EA"/>
<circle cx="113" cy="245" r="3" transform="rotate(-90 113 245)" fill="#F3F0EA"/>
<circle cx="113" cy="135" r="3" transform="rotate(-90 113 135)" fill="#F3F0EA"/>
<circle cx="113" cy="25" r="3" transform="rotate(-90 113 25)" fill="#F3F0EA"/>
<circle cx="113" cy="223" r="3" transform="rotate(-90 113 223)" fill="#F3F0EA"/>
<circle cx="113" cy="113" r="3" transform="rotate(-90 113 113)" fill="#F3F0EA"/>
<circle cx="113" cy="3" r="3" transform="rotate(-90 113 3)" fill="#F3F0EA"/>
<circle cx="157" cy="201" r="3" transform="rotate(-90 157 201)" fill="#F3F0EA"/>
<circle cx="157" cy="91" r="3" transform="rotate(-90 157 91)" fill="#F3F0EA"/>
<circle cx="157" cy="289" r="3" transform="rotate(-90 157 289)" fill="#F3F0EA"/>
<circle cx="157" cy="179" r="3" transform="rotate(-90 157 179)" fill="#F3F0EA"/>
<circle cx="157" cy="69" r="3" transform="rotate(-90 157 69)" fill="#F3F0EA"/>
<circle cx="157" cy="267" r="3" transform="rotate(-90 157 267)" fill="#F3F0EA"/>
<circle cx="157" cy="157" r="3" transform="rotate(-90 157 157)" fill="#F3F0EA"/>
<circle cx="157" cy="47" r="3" transform="rotate(-90 157 47)" fill="#F3F0EA"/>
<circle cx="157" cy="245" r="3" transform="rotate(-90 157 245)" fill="#F3F0EA"/>
<circle cx="157" cy="135" r="3" transform="rotate(-90 157 135)" fill="#F3F0EA"/>
<circle cx="157" cy="25" r="3" transform="rotate(-90 157 25)" fill="#F3F0EA"/>
<circle cx="157" cy="223" r="3" transform="rotate(-90 157 223)" fill="#F3F0EA"/>
<circle cx="157" cy="113" r="3" transform="rotate(-90 157 113)" fill="#F3F0EA"/>
<circle cx="157" cy="3" r="3" transform="rotate(-90 157 3)" fill="#F3F0EA"/>
<circle cx="3" cy="201" r="3" transform="rotate(-90 3 201)" fill="#F3F0EA"/>
<circle cx="3" cy="91" r="3" transform="rotate(-90 3 91)" fill="#F3F0EA"/>
<circle cx="3" cy="289" r="3" transform="rotate(-90 3 289)" fill="#F3F0EA"/>
<circle cx="3" cy="179" r="3" transform="rotate(-90 3 179)" fill="#F3F0EA"/>
<circle cx="3" cy="69" r="3" transform="rotate(-90 3 69)" fill="#F3F0EA"/>
<circle cx="3" cy="267" r="3" transform="rotate(-90 3 267)" fill="#F3F0EA"/>
<circle cx="3" cy="157" r="3" transform="rotate(-90 3 157)" fill="#F3F0EA"/>
<circle cx="3" cy="47" r="3" transform="rotate(-90 3 47)" fill="#F3F0EA"/>
<circle cx="3" cy="245" r="3" transform="rotate(-90 3 245)" fill="#F3F0EA"/>
<circle cx="3" cy="135" r="3" transform="rotate(-90 3 135)" fill="#F3F0EA"/>
<circle cx="3" cy="25" r="3" transform="rotate(-90 3 25)" fill="#F3F0EA"/>
<circle cx="3" cy="223" r="3" transform="rotate(-90 3 223)" fill="#F3F0EA"/>
<circle cx="3" cy="113" r="3" transform="rotate(-90 3 113)" fill="#F3F0EA"/>
<circle cx="3" cy="3" r="3" transform="rotate(-90 3 3)" fill="#F3F0EA"/>
<circle cx="47" cy="201" r="3" transform="rotate(-90 47 201)" fill="#F3F0EA"/>
<circle cx="47" cy="91" r="3" transform="rotate(-90 47 91)" fill="#F3F0EA"/>
<circle cx="47" cy="289" r="3" transform="rotate(-90 47 289)" fill="#F3F0EA"/>
<circle cx="47" cy="179" r="3" transform="rotate(-90 47 179)" fill="#F3F0EA"/>
<circle cx="47" cy="69" r="3" transform="rotate(-90 47 69)" fill="#F3F0EA"/>
<circle cx="47" cy="267" r="3" transform="rotate(-90 47 267)" fill="#F3F0EA"/>
<circle cx="47" cy="157" r="3" transform="rotate(-90 47 157)" fill="#F3F0EA"/>
<circle cx="47" cy="47" r="3" transform="rotate(-90 47 47)" fill="#F3F0EA"/>
<circle cx="47" cy="245" r="3" transform="rotate(-90 47 245)" fill="#F3F0EA"/>
<circle cx="47" cy="135" r="3" transform="rotate(-90 47 135)" fill="#F3F0EA"/>
<circle cx="47" cy="25" r="3" transform="rotate(-90 47 25)" fill="#F3F0EA"/>
<circle cx="47" cy="223" r="3" transform="rotate(-90 47 223)" fill="#F3F0EA"/>
<circle cx="47" cy="113" r="3" transform="rotate(-90 47 113)" fill="#F3F0EA"/>
<circle cx="47" cy="3" r="3" transform="rotate(-90 47 3)" fill="#F3F0EA"/>
<circle cx="25" cy="201" r="3" transform="rotate(-90 25 201)" fill="#F3F0EA"/>
<circle cx="25" cy="91" r="3" transform="rotate(-90 25 91)" fill="#F3F0EA"/>
<circle cx="25" cy="289" r="3" transform="rotate(-90 25 289)" fill="#F3F0EA"/>
<circle cx="25" cy="179" r="3" transform="rotate(-90 25 179)" fill="#F3F0EA"/>
<circle cx="25" cy="69" r="3" transform="rotate(-90 25 69)" fill="#F3F0EA"/>
<circle cx="25" cy="267" r="3" transform="rotate(-90 25 267)" fill="#F3F0EA"/>
<circle cx="25" cy="157" r="3" transform="rotate(-90 25 157)" fill="#F3F0EA"/>
<circle cx="25" cy="47" r="3" transform="rotate(-90 25 47)" fill="#F3F0EA"/>
<circle cx="25" cy="245" r="3" transform="rotate(-90 25 245)" fill="#F3F0EA"/>
<circle cx="25" cy="135" r="3" transform="rotate(-90 25 135)" fill="#F3F0EA"/>
<circle cx="25" cy="25" r="3" transform="rotate(-90 25 25)" fill="#F3F0EA"/>
<circle cx="25" cy="223" r="3" transform="rotate(-90 25 223)" fill="#F3F0EA"/>
<circle cx="25" cy="113" r="3" transform="rotate(-90 25 113)" fill="#F3F0EA"/>
<circle cx="25" cy="3" r="3" transform="rotate(-90 25 3)" fill="#F3F0EA"/>
<circle cx="69" cy="201" r="3" transform="rotate(-90 69 201)" fill="#F3F0EA"/>
<circle cx="69" cy="91" r="3" transform="rotate(-90 69 91)" fill="#F3F0EA"/>
<circle cx="69" cy="289" r="3" transform="rotate(-90 69 289)" fill="#F3F0EA"/>
<circle cx="69" cy="179" r="3" transform="rotate(-90 69 179)" fill="#F3F0EA"/>
<circle cx="69" cy="69" r="3" transform="rotate(-90 69 69)" fill="#F3F0EA"/>
<circle cx="69" cy="267" r="3" transform="rotate(-90 69 267)" fill="#F3F0EA"/>
<circle cx="69" cy="157" r="3" transform="rotate(-90 69 157)" fill="#F3F0EA"/>
<circle cx="69" cy="47" r="3" transform="rotate(-90 69 47)" fill="#F3F0EA"/>
<circle cx="69" cy="245" r="3" transform="rotate(-90 69 245)" fill="#F3F0EA"/>
<circle cx="69" cy="135" r="3" transform="rotate(-90 69 135)" fill="#F3F0EA"/>
<circle cx="69" cy="25" r="3" transform="rotate(-90 69 25)" fill="#F3F0EA"/>
<circle cx="69" cy="223" r="3" transform="rotate(-90 69 223)" fill="#F3F0EA"/>
<circle cx="69" cy="113" r="3" transform="rotate(-90 69 113)" fill="#F3F0EA"/>
<circle cx="69" cy="3" r="3" transform="rotate(-90 69 3)" fill="#F3F0EA"/>
</svg>
