<svg width="98" height="24" viewBox="0 0 98 24" fill="none" xmlns="http://www.w3.org/2000/svg">
<g id="Group 86">
<g id="L&#226;&#128;&#153;magasa">
<path d="M0.427452 19.5109H11.2037C11.4737 19.5109 11.6312 19.3534 11.6312 19.0835V16.3163C11.6312 16.0463 11.4737 15.8888 11.2037 15.8888H4.4095C4.29701 15.8888 4.22952 15.8213 4.22952 15.7088V4.19015C4.22952 3.92018 4.07204 3.7627 3.80207 3.7627H0.427452C0.157482 3.7627 0 3.92018 0 4.19015V19.0835C0 19.3534 0.157482 19.5109 0.427452 19.5109Z" fill="white"/>
<path d="M31.1664 7.63226C29.794 7.63226 28.6916 8.21719 28.0842 9.56704C28.0167 9.72452 27.9267 9.72452 27.8592 9.58954C27.2518 8.32968 26.0819 7.63226 24.5746 7.63226C23.2473 7.63226 22.3249 8.1497 21.7624 9.16209C21.6724 9.31957 21.5599 9.29707 21.5599 9.11709V8.23969C21.5599 7.96972 21.4025 7.81224 21.1325 7.81224H17.7579C17.4879 7.81224 17.3304 7.96972 17.3304 8.23969V19.0835C17.3304 19.3534 17.4879 19.5109 17.7579 19.5109H21.1325C21.4025 19.5109 21.5599 19.3534 21.5599 19.0835V12.5592C21.5599 12.4917 21.5599 12.4242 21.5824 12.3342C21.7174 11.6818 22.1899 11.2544 22.8198 11.2544C23.5622 11.2544 24.0797 11.8618 24.0797 12.7617V19.0835C24.0797 19.3534 24.2371 19.5109 24.5071 19.5109H27.8817C28.1517 19.5109 28.3092 19.3534 28.3092 19.0835V12.7617C28.3092 11.8618 28.8041 11.2544 29.5241 11.2544C30.2215 11.2544 30.6939 11.8618 30.6939 12.7617V19.0835C30.6939 19.3534 30.8514 19.5109 31.1214 19.5109H34.496C34.766 19.5109 34.9234 19.3534 34.9234 19.0835V11.8393C34.9234 9.16209 33.5286 7.63226 31.1664 7.63226Z" fill="white"/>
<path d="M41.869 7.63226C38.8768 7.63226 36.6721 9.18458 36.4696 11.2094C36.4471 11.4118 36.5821 11.5243 36.8521 11.5468L40.3167 11.9968C40.5642 12.0193 40.6541 11.9068 40.8116 11.7043C40.9916 11.4343 41.4191 11.2544 41.9365 11.2544C42.7239 11.2544 43.2189 11.6818 43.2189 12.3117V12.6492C43.2189 12.7617 43.1514 12.8292 43.0389 12.8292H41.0141C37.9095 12.8292 36.3121 14.134 36.3121 16.3838C36.3121 18.5885 37.8645 19.6909 40.2717 19.6909C41.6215 19.6909 42.4989 19.3534 43.0164 18.611C43.1289 18.476 43.2189 18.521 43.2189 18.6785V19.0835C43.2189 19.3534 43.3763 19.5109 43.6463 19.5109H47.0209C47.2909 19.5109 47.4484 19.3534 47.4484 19.0835V11.5243C47.4484 9.36456 44.9962 7.63226 41.869 7.63226ZM41.5765 16.7662C40.8791 16.7662 40.5642 16.3613 40.5642 15.8663C40.5642 15.2364 41.0591 14.9439 41.9815 14.9439H43.0389C43.1514 14.9439 43.2189 15.0114 43.2189 15.1239V15.3489C43.2189 16.2488 42.5214 16.7662 41.5765 16.7662Z" fill="white"/>
<path d="M56.4707 8.23969V8.41967C56.4707 8.57715 56.3807 8.59965 56.2683 8.48716C55.7508 7.94722 55.0084 7.63226 53.951 7.63226C51.9038 7.63226 50.3064 8.86962 49.5865 10.7144C49.2266 11.6143 49.1141 12.6267 49.1141 13.5491C49.1141 14.2465 49.1816 15.2589 49.4965 16.1813C50.3514 18.701 52.5337 19.106 54.086 19.106C54.9859 19.106 55.6383 18.881 56.1108 18.521C56.2458 18.431 56.4482 18.521 56.4032 18.6785C56.0208 20.2983 54.1085 20.5008 52.1512 20.0509C51.8588 19.9609 51.6788 20.0734 51.6563 20.3883L51.5213 23.2455C51.4988 23.493 51.6338 23.673 51.8813 23.7179C55.5933 24.3479 60.7003 23.7629 60.7003 17.9811V8.23969C60.7003 7.96972 60.5428 7.81224 60.2728 7.81224H56.8982C56.6282 7.81224 56.4707 7.96972 56.4707 8.23969ZM56.2458 15.0789C56.0208 15.5514 55.6383 15.8438 54.9859 15.8438C54.356 15.8438 53.9285 15.5289 53.681 15.0564C53.4786 14.674 53.3886 14.1565 53.3886 13.5941C53.3886 13.0541 53.5011 12.4692 53.7485 12.0418C53.996 11.5693 54.3785 11.2544 54.9409 11.2544C55.5708 11.2544 55.9758 11.5468 56.2233 12.0643C56.4032 12.4692 56.4707 12.9192 56.4707 13.5266C56.4707 14.134 56.4032 14.674 56.2458 15.0789Z" fill="white"/>
<path d="M67.727 7.63226C64.7349 7.63226 62.5301 9.18458 62.3276 11.2094C62.3051 11.4118 62.4401 11.5243 62.7101 11.5468L66.1747 11.9968C66.4222 12.0193 66.5122 11.9068 66.6696 11.7043C66.8496 11.4343 67.2771 11.2544 67.7945 11.2544C68.5819 11.2544 69.0769 11.6818 69.0769 12.3117V12.6492C69.0769 12.7617 69.0094 12.8292 68.8969 12.8292H66.8721C63.7675 12.8292 62.1702 14.134 62.1702 16.3838C62.1702 18.5885 63.7225 19.6909 66.1297 19.6909C67.4796 19.6909 68.357 19.3534 68.8744 18.611C68.9869 18.476 69.0769 18.521 69.0769 18.6785V19.0835C69.0769 19.3534 69.2344 19.5109 69.5043 19.5109H72.8789C73.1489 19.5109 73.3064 19.3534 73.3064 19.0835V11.5243C73.3064 9.36456 70.8542 7.63226 67.727 7.63226ZM67.4346 16.7662C66.7371 16.7662 66.4222 16.3613 66.4222 15.8663C66.4222 15.2364 66.9171 14.9439 67.8395 14.9439H68.8969C69.0094 14.9439 69.0769 15.0114 69.0769 15.1239V15.3489C69.0769 16.2488 68.3795 16.7662 67.4346 16.7662Z" fill="white"/>
<path d="M80.484 19.6909C83.6336 19.6909 85.8159 18.4535 85.8159 15.9338C85.8159 14.269 84.871 13.3241 83.3186 12.7842C81.3389 12.1093 79.2016 12.3792 79.2016 11.5243C79.2016 11.1194 79.7191 10.8944 80.3715 10.8944C81.1364 10.8944 81.6088 11.2094 81.6088 11.7043V11.8168C81.6088 11.8843 81.7663 11.9518 82.0363 11.9518H85.1184C85.3884 11.9518 85.5459 11.8618 85.5459 11.7043C85.5459 9.25208 83.4761 7.63226 80.304 7.63226C77.2443 7.63226 75.1521 9.13959 75.1521 11.5918C75.1521 13.2116 76.0745 14.0665 77.0869 14.5615C79.1116 15.5514 81.5638 15.1464 81.5638 16.0238C81.5638 16.3838 81.1139 16.5862 80.4615 16.5862C79.6291 16.5862 79.0441 16.2713 79.0441 15.7763V15.6414C79.0441 15.5739 78.8867 15.5289 78.6167 15.5289H75.422C75.1521 15.5289 74.9946 15.6864 74.9946 15.9563V16.0688C74.9946 18.2511 77.0868 19.6909 80.484 19.6909Z" fill="white"/>
<path d="M92.4206 7.63226C89.4285 7.63226 87.2237 9.18458 87.0212 11.2094C86.9987 11.4118 87.1337 11.5243 87.4037 11.5468L90.8683 11.9968C91.1158 12.0193 91.2058 11.9068 91.3632 11.7043C91.5432 11.4343 91.9707 11.2544 92.4881 11.2544C93.2755 11.2544 93.7705 11.6818 93.7705 12.3117V12.6492C93.7705 12.7617 93.703 12.8292 93.5905 12.8292H91.5657C88.4611 12.8292 86.8638 14.134 86.8638 16.3838C86.8638 18.5885 88.4161 19.6909 90.8233 19.6909C92.1732 19.6909 93.0506 19.3534 93.568 18.611C93.6805 18.476 93.7705 18.521 93.7705 18.6785V19.0835C93.7705 19.3534 93.928 19.5109 94.1979 19.5109H97.5725C97.8425 19.5109 98 19.3534 98 19.0835V11.5243C98 9.36456 95.5478 7.63226 92.4206 7.63226ZM92.1282 16.7662C91.4307 16.7662 91.1158 16.3613 91.1158 15.8663C91.1158 15.2364 91.6107 14.9439 92.5331 14.9439H93.5905C93.703 14.9439 93.7705 15.0114 93.7705 15.1239V15.3489C93.7705 16.2488 93.0731 16.7662 92.1282 16.7662Z" fill="white"/>
</g>
<path id="&#226;&#128;&#153;" d="M10.9341 0.387939C8.66734 0.387939 6.99707 1.76646 6.99707 3.91695C6.99707 5.37818 7.74272 6.45343 8.93577 6.97727L7.65328 10.9843C7.55001 11.3069 7.79072 11.6367 8.12948 11.6367H11.3134C11.5016 11.6367 11.6738 11.531 11.7591 11.3632L13.708 7.52868C14.7519 5.4609 14.8712 4.79921 14.8712 3.91695C14.8712 1.76646 13.2009 0.387939 10.9341 0.387939Z" fill="#FAE00C"/>
</g>
</svg>
